<?xml version="1.0" encoding="UTF-8" standalone="no"?>
<svg
   xmlns:dc="http://purl.org/dc/elements/1.1/"
   xmlns:cc="http://creativecommons.org/ns#"
   xmlns:rdf="http://www.w3.org/1999/02/22-rdf-syntax-ns#"
   xmlns:svg="http://www.w3.org/2000/svg"
   xmlns="http://www.w3.org/2000/svg"
   xmlns:sodipodi="http://sodipodi.sourceforge.net/DTD/sodipodi-0.dtd"
   xmlns:inkscape="http://www.inkscape.org/namespaces/inkscape"
   inkscape:version="1.0 (4035a4f, 2020-05-01)"
   sodipodi:docname="test.svg"
   id="svg70"
   version="1.1"
   viewBox="0 0 200 60">
  <metadata
     id="metadata76">
    <rdf:RDF>
      <cc:Work
         rdf:about="">
        <dc:format>image/svg+xml</dc:format>
        <dc:type
           rdf:resource="http://purl.org/dc/dcmitype/StillImage" />
      </cc:Work>
    </rdf:RDF>
  </metadata>
  <defs
     id="defs74" />
  <sodipodi:namedview
     inkscape:current-layer="svg64"
     inkscape:window-maximized="1"
     inkscape:window-y="23"
     inkscape:window-x="0"
     inkscape:cy="44.183584"
     inkscape:cx="119.82467"
     inkscape:zoom="1.8040715"
     showgrid="false"
     id="namedview72"
     inkscape:window-height="720"
     inkscape:window-width="1280"
     inkscape:pageshadow="2"
     inkscape:pageopacity="0"
     guidetolerance="10"
     gridtolerance="10"
     objecttolerance="10"
     borderopacity="1"
     bordercolor="#666666"
     pagecolor="#ffffff" />
  <!--<rect width="100%" height="100%" fill="black"/>-->
  <svg
     inkscape:transform-center-y="50.995761"
     inkscape:transform-center-x="55.984477"
     id="svg64"
     aria-hidden="true"
     width="32"
     version="1.1"
     viewBox="0 0 16 16"
     height="32"
     class="octicon octicon-mark-github v-align-middle">
    <path
       style="stroke-width:1.01257"
       id="path62"
       d="m 13,6.25 c -4.42,0 -8,3.6705526 -8,8.202351 0,3.62954 2.29,6.695168 5.47,7.78198 0.4,0.07177 0.55,-0.1743 0.55,-0.389612 0,-0.194806 -0.01,-0.840741 -0.01,-1.527688 C 9,20.69639 8.48,19.814637 8.32,19.353255 8.23,19.117438 7.84,18.389479 7.5,18.194673 7.22,18.040879 6.82,17.66152 7.49,17.651267 c 0.63,-0.01025 1.08,0.594671 1.23,0.840741 0.72,1.240606 1.87,0.892006 2.33,0.676694 0.07,-0.533153 0.28,-0.892005 0.51,-1.097064 -1.7799997,-0.205059 -3.64,-0.912512 -3.64,-4.04991 0,-0.892006 0.31,-1.630217 0.82,-2.204382 -0.08,-0.205059 -0.36,-1.0458 0.08,-2.1736232 0,0 0.67,-0.2153117 2.2,0.8407412 0.64,-0.184553 1.32,-0.276829 2,-0.276829 0.68,0 1.36,0.09228 2,0.276829 1.53,-1.0663058 2.2,-0.8407412 2.2,-0.8407412 0.44,1.1278232 0.16,1.9685642 0.08,2.1736232 0.51,0.574165 0.82,1.302123 0.82,2.204382 0,3.147651 -1.87,3.844851 -3.65,4.04991 0.29,0.256323 0.54,0.748464 0.54,1.517435 0,1.097064 -0.01,1.978817 -0.01,2.255646 0,0.215312 0.15,0.471636 0.55,0.389612 A 8.013,8.2156801 0 0 0 21,14.452351 C 21,9.9205526 17.42,6.25 13,6.25 Z"
       fill-rule="evenodd" />
  </svg>
  <svg
     id="svg68"
     version="1.1"
     style="height: 228px;"
     stroke-miterlimit="2"
     stroke-linejoin="round"
     clip-rule="evenodd"
     fill-rule="evenodd"
     viewBox="0 0 1501 406"
     alt="GitHub">
    <path
       inkscape:transform-center-y="8.3842902"
       inkscape:transform-center-x="-7.2555837"
       style="stroke-width:0.744869"
       id="path66"
       fill-rule="nonzero"
       fill="#0e0d0d"
       d="m 554.54901,181.38829 h -94.59862 a 4.4219334,4.3602865 0 0 0 -4.41968,4.36028 v 45.60661 c 0,2.40685 1.97881,4.36693 4.41968,4.36693 h 36.9027 v 56.66081 c 0,0 -8.28578,2.7863 -31.19581,2.7863 -27.02593,0 -64.78151,-9.7391 -64.78151,-91.6067 0,-81.88316 39.31507,-92.6585 76.22377,-92.6585 31.95193,0 45.71357,5.54744 54.47417,8.2191 2.75369,0.83211 5.29807,-1.8706 5.29807,-4.27745 l 10.55114,-44.06516 c 0,-1.127976 -0.38707,-2.483767 -1.68777,-3.405386 C 542.17886,64.8736 520.47875,52.9 465.65728,52.9 402.50352,52.9 337.725,79.394566 337.725,206.75562 337.725,334.11815 411.89271,353.1 474.39313,353.1 c 51.749,0 83.14135,-21.8081 83.14135,-21.8081 1.29394,-0.70267 1.43421,-2.48673 1.43421,-3.30331 V 185.74857 a 4.4219334,4.3602865 0 0 0 -4.41968,-4.36028 z M 1042.0749,68.161367 c 0,-2.425341 -1.9503,-4.385421 -4.3942,-4.385421 h -53.26421 c -2.43184,0 -4.41069,1.96008 -4.41069,4.386167 L 980.0209,169.661 H 896.99334 V 68.161367 c 0,-2.425341 -1.95704,-4.385421 -4.39492,-4.385421 h -53.26123 c -2.42288,0 -4.40094,1.96008 -4.40094,4.386167 V 343.00071 c 0,2.42237 1.97881,4.3943 4.40094,4.3943 h 53.26123 c 2.43788,0 4.39492,-1.97193 4.39492,-4.3943 V 225.44012 h 83.02807 l -0.14701,117.55984 c 0,2.4224 1.97583,4.39432 4.41371,4.39432 h 53.38939 c 2.4409,0 4.3912,-1.97192 4.3973,-4.39432 V 68.161367 Z M 655.06155,104.22638 c 0,-18.910845 -15.37362,-34.194419 -34.34556,-34.194419 -18.95318,0 -34.3433,15.283574 -34.3433,34.194419 0,18.89162 15.39012,34.21808 34.3433,34.21808 18.97194,0 34.34556,-15.32572 34.34556,-34.21808 z m -3.80684,236.1145 V 158.15636 c 0,-2.40684 -1.97205,-4.37582 -4.40693,-4.37582 h -53.09846 c -2.43488,0 -4.61321,2.47415 -4.61321,4.8847 v 181.76145 c 0,5.34107 3.37552,6.92838 7.7412,6.92838 h 47.8394 c 5.25081,0 6.538,-2.53924 6.538,-7.01419 z M 1244.5034,154.19326 h -52.8554 c -2.4221,0 -4.3972,1.96898 -4.3972,4.39507 v 134.7591 c 0,0 -13.43,9.68952 -32.4898,9.68952 -19.0559,0 -24.1124,-8.52752 -24.1124,-26.92947 V 158.58833 c 0,-2.42609 -1.9691,-4.39507 -4.3979,-4.39507 h -53.6461 c -2.4192,0 -4.4032,1.96898 -4.4032,4.39507 v 126.41649 c 0,54.65781 30.892,68.0301 73.3891,68.0301 34.8676,0 62.9782,-18.99369 62.9782,-18.99369 0,0 1.3382,10.00979 1.9443,11.19694 0.6032,1.18346 2.1814,2.37875 3.8879,2.37875 l 34.1273,-0.14792 c 2.4191,0 4.4039,-1.97194 4.4039,-4.3884 l -0.019,-184.49301 c 0,-2.42533 -1.9721,-4.39431 -4.4099,-4.39431 z m 123.6192,148.67727 c -18.3344,-0.55104 -30.7698,-8.75534 -30.7698,-8.75534 V 207.0818 c 0,0 12.2666,-7.41507 27.3191,-8.7398 19.0343,-1.68346 37.3747,3.98751 37.3747,48.75829 0,47.21536 -8.2761,56.53209 -33.924,55.77024 z m 20.8471,-154.85045 c -30.0203,0 -50.4393,13.20586 -50.4393,13.20586 V 68.162113 c 0,-2.426087 -1.9691,-4.386167 -4.3942,-4.386167 h -53.418 c -2.4281,0 -4.4001,1.96008 -4.4001,4.386167 V 343.00071 c 0,2.42237 1.972,4.3943 4.4069,4.3943 h 37.0616 c 1.6692,0 2.9316,-0.84765 3.8663,-2.33287 0.9226,-1.47636 2.2502,-12.67258 2.2502,-12.67258 0,0 21.8412,20.41161 63.1883,20.41161 48.5446,0 76.3836,-24.27928 76.3836,-108.99532 0,-84.71531 -44.463,-95.78577 -74.5053,-95.78577 z m -584.62832,5.73531 h -39.95643 l -0.0593,-52.04977 c 0,-1.969706 -1.03141,-2.95566 -3.34102,-2.95566 h -54.44641 c -2.11907,0 -3.25326,0.920862 -3.25326,2.9246 v 53.78796 c 0,0 -27.28546,6.4942 -29.13299,7.01789 a 4.4286845,4.3669435 0 0 0 -3.188,4.19163 v 33.79944 c 0,2.42829 1.96905,4.3884 4.40393,4.3884 h 27.91706 v 81.31656 c 0,60.39311 42.9629,66.32517 71.95113,66.32517 13.2493,0 29.0955,-4.19387 31.7119,-5.14654 1.58124,-0.57323 2.50014,-2.18791 2.50014,-3.94164 l 0.0472,-37.1804 c 0,-2.42534 -2.07857,-4.38841 -4.41968,-4.38841 -2.33136,0 -8.28278,0.93346 -14.41498,0.93346 -19.62753,0 -26.27581,-8.99574 -26.27581,-20.64239 l -0.003,-77.27581 h 39.95868 c 2.43263,0 4.40769,-1.96011 4.40769,-4.3884 v -42.33656 c 0,-2.42534 -1.97506,-4.37879 -4.40693,-4.37879 z" />
  </svg>
</svg>
